# xmcd
# Track frame offsets:
# 150
# 17198
# 34246
# 54638
# 75030
# 91917
# 108804
# 121416
# 134028
# 147398
# 160768
# 175252
# 189736
# 206205
# 222674
# 236936
# 251198
# 267989
#
# Disc length: 3797 seconds
# Revision: 0
# Processed by: cddbd v1.5.1PL0 Copyright (c) Steve Scherf et al.
# Submitted via: VisiTrax 2.9.10.228 - For more info visit www.synapsa.com
#
DISCID=110ed312
DTITLE=Various Artist - Hits Monthly Nashville  PHN0412
DYEAR=1900
DGENRE=Karaoke
TTITLE0=Big and Rich - Holy Water
TTITLE1=McGraw, Tim - Back When
TTITLE2=Twain, Shania and Billy - Party For Two
TTITLE3=Gracin, Josh - Nothin' To Lose
TTITLE4=Rimes, LeAnn - Nothin' 'bout Love Makes Sense
TTITLE5=Bryant, Keith - Ridin' With The Legend
TTITLE6=Dean, Billy - Let Them Be Little
TTITLE7=Paisley, Brad - Mud On The Tires
TTITLE8=Proctor, Rachel - Where I Belong
TTITLE9=Big and Rich w/vocal - Holy Water
TTITLE10=McGraw, Tim w/vocal - Back When
TTITLE11=Twain, Shania and Billy - Party For Two
TTITLE12=Gracin, Josh w/vocal - Nothin' To Lose
TTITLE13=Rimes, Leann w/vocal - Nothin' 'bout Love Makes Sense
TTITLE14=Bryant, Keith w/vocal - Ridin' With The Legend
TTITLE15=Dean, Billy w/vocal - Let Them Be Little
TTITLE16=Paisley, Brad w/vocal - Mud On The Tires
TTITLE17=Proctor, Rachel w/vocal - Where I Belong
EXTD=
EXTT0=
EXTT1=
EXTT2=
EXTT3=
EXTT4=
EXTT5=
EXTT6=
EXTT7=
EXTT8=
EXTT9=
EXTT10=
EXTT11=
EXTT12=
EXTT13=
EXTT14=
EXTT15=
EXTT16=
EXTT17=
PLAYORDER=
